# xmcd
# 
# Track frame offsets:
#     150
#     13666
#     28668
#     45535
#     63002
#     78497
#     95026
#     108974
#     123639
#     135930
#     148290
#     161955
# 
# Disc length: 2321
# 
# Revision: 1
# Processed by: cddbd v1.5.2PL0 Copyright (c) Steve Scherf et al.
# Submitted via: BonkEnc v1.0
# 
DISCID=a2090f0c
DTITLE=Líbanos - Inconfundível - Vol. 7
DYEAR=2002
DGENRE=Forró
TTITLE0=O Que Passou, Passou
TTITLE1=Amor Bandido
TTITLE2=Quero Mais
TTITLE3=Semente do Amor
TTITLE4=Me Faz
TTITLE5=A Paixão
TTITLE6=Você de Novo Aqui
TTITLE7=Soy Loco De Amor Por Ti
TTITLE8=Quero Tranzar
TTITLE9=Cansei de Sofrer
TTITLE10=Seja Feliz
TTITLE11=Parede da Paixão
EXTD=YEAR: 2002 ID3G: 100
EXTT0=
EXTT1=
EXTT2=
EXTT3=
EXTT4=
EXTT5=
EXTT6=
EXTT7=
EXTT8=
EXTT9=
EXTT10=
EXTT11=
PLAYORDER=
